PathFileType	4	(X/Y/Z)	 s09c0101.trc
DataRate	CameraRate	NumFrames	NumMarkers	Units	OrigDataRate	OrigDataStartFrame	OrigNumFrames
200	200	4	50	mm	200	501	2000
Frame#	Time	racr			lacr			c7			jug			rlel			rdr			llel			ldr			s2			lic			ric			lasi			rasi			rpsi			lpsi			rgt			lgt			rth1			rth2			rth3			rth4			rlfc			rmfc			rsh1			rsh2			rsh3			rsh4			rlmal			rmmal			rcal			rtoe			rmt5			lth1			lth2			lth4			lth3			llfc			lmfc			llmal			lmmal			lcal			lmt5			lsh1			lsh2			lsh3			lsh4			ltoe			SBIKE			LBIKE			RBIKE			
		X1	Y1	Z1	X2	Y2	Z2	X3	Y3	Z3	X4	Y4	Z4	X5	Y5	Z5	X6	Y6	Z6	X7	Y7	Z7	X8	Y8	Z8	X9	Y9	Z9	X10	Y10	Z10	X11	Y11	Z11	X12	Y12	Z12	X13	Y13	Z13	X14	Y14	Z14	X15	Y15	Z15	X16	Y16	Z16	X17	Y17	Z17	X18	Y18	Z18	X19	Y19	Z19	X20	Y20	Z20	X21	Y21	Z21	X22	Y22	Z22	X23	Y23	Z23	X24	Y24	Z24	X25	Y25	Z25	X26	Y26	Z26	X27	Y27	Z27	X28	Y28	Z28	X29	Y29	Z29	X30	Y30	Z30	X31	Y31	Z31	X32	Y32	Z32	X33	Y33	Z33	X34	Y34	Z34	X35	Y35	Z35	X36	Y36	Z36	X37	Y37	Z37	X38	Y38	Z38	X39	Y39	Z39	X40	Y40	Z40	X41	Y41	Z41	X42	Y42	Z42	X43	Y43	Z43	X44	Y44	Z44	X45	Y45	Z45	X46	Y46	Z46	X47	Y47	Z47	X48	Y48	Z48	X49	Y49	Z49	X50	Y50	Z50	
501	2.5050	505.775147	1251.344240	-28.526542	547.599675	1246.830345	-335.124257	500.199795	1292.874227	-181.984228	477.818104	1154.857630	-188.484451	450.437065	997.242044	19.759054	670.147805	887.965368	-36.918941	489.074578	1021.380183	-486.065357	689.474349	873.514530	-436.991395	13.354622	1148.598803	-225.662994	150.814204	1142.914972	-369.594093	148.231424	1140.162838	-65.745081	190.662894	1083.519446	-343.568262	193.297798	1090.668662	-87.450428	41.019174	1179.095301	-162.459573	43.916022	1189.039414	-271.907991	125.684215	994.912167	-39.112853	125.916997	1020.437596	-411.564137	236.721643	908.487329	-55.444582	313.597358	869.973746	-69.582648	357.768557	794.438512	-84.840832	335.035544	893.235895	-88.345801	418.986669	717.259155	-124.663233	397.291342	694.939075	-218.815217	390.989148	618.394065	-85.814503	398.158669	530.006311	-100.670276	362.891544	450.112020	-94.091350	418.420617	529.270314	-134.867014	340.835646	349.580920	-87.696587	336.438164	357.812886	-167.153584	271.293640	292.809776	-121.904533	529.763468	353.069840	-126.970940	455.225472	315.827678	-61.298271	225.102708	925.908709	-413.828378	298.711473	883.947645	-409.411915	323.888338	906.867550	-392.502448	344.298259	805.367396	-411.007101	377.643074	710.217643	-401.245409	387.849499	691.579150	-303.508422	110.959958	461.239012	-396.502975	132.773671	452.697353	-326.567644	40.404471	473.748916	-358.320142	132.192626	330.086684	-426.521327	307.059013	639.590875	-420.401657	261.693682	566.374820	-408.064747	183.210975	524.790634	-404.942098	281.964627	551.124921	-379.007450	211.419962	278.131900	-360.467030	-64.238346	853.883355	-236.556979	20.916273	85.376393	-441.398050	21.451216	84.012382	-43.226358	
502	2.5100	506.588239	1252.089127	-28.415937	547.445362	1246.966757	-336.299119	500.541110	1293.142490	-182.803812	478.304504	1155.032535	-188.934092	450.580198	997.819796	19.219768	670.124363	888.170566	-37.172217	489.032190	1021.279796	-486.669872	689.238167	873.496212	-437.268293	13.552487	1148.840195	-225.160650	151.023825	1143.379479	-369.370273	148.717329	1140.035691	-65.410591	190.740993	1083.859517	-343.405035	193.729521	1090.494219	-87.220420	41.417174	1179.185636	-161.966371	44.025887	1189.320036	-271.420911	125.830304	994.430037	-39.082324	126.617410	1021.550039	-411.593867	236.165475	907.058469	-54.743508	312.516052	867.873664	-69.410509	355.793956	791.471787	-85.426162	334.128330	890.575953	-88.838842	416.105228	713.997882	-125.342180	392.456573	690.772534	-218.228623	388.667197	615.115321	-86.195506	396.551439	526.847522	-100.973007	361.990592	446.620264	-94.340587	416.755118	526.179047	-135.225587	340.549080	345.850686	-87.861126	336.218934	353.985029	-167.203728	271.111590	289.388700	-121.961671	529.925285	348.240023	-127.051397	455.118341	311.390002	-61.407622	226.214329	927.330202	-413.769834	300.140784	885.908803	-409.193181	325.084313	908.999469	-392.019574	346.301025	807.632059	-410.722711	380.050578	712.764223	-400.777367	390.709907	693.881708	-302.785992	111.515665	465.689976	-396.507899	133.214600	457.156554	-326.556517	40.832246	478.297385	-358.365177	132.627858	334.562260	-426.504884	309.053895	642.562384	-420.082113	263.151007	569.775124	-407.782050	184.496350	528.891130	-404.968947	283.238206	554.351652	-378.581172	211.766705	282.499701	-360.401552	-64.076351	853.996694	-236.935897	20.921352	85.315721	-441.425123	21.464228	83.994817	-43.234663	
503	2.5150	507.326566	1252.748317	-28.918570	547.359855	1246.984561	-337.252572	500.889938	1293.510254	-183.660511	478.752782	1155.232931	-189.383786	450.774926	998.375366	18.609341	670.104479	888.391513	-37.472747	488.966631	1021.157471	-487.220470	688.990077	873.477170	-437.597306	13.139430	1149.063309	-224.497587	151.076296	1143.827761	-369.097290	149.155229	1139.925139	-64.959442	190.841626	1084.271738	-343.253834	194.116948	1090.282448	-87.101109	41.875660	1179.308223	-161.565210	44.201711	1189.697577	-270.976075	125.967245	994.170515	-39.170939	127.326869	1022.703346	-411.656786	235.421283	905.336604	-56.032435	311.251853	865.327850	-70.481576	353.636017	788.516163	-86.072101	333.117221	887.905190	-89.408981	413.251717	710.937262	-125.914443	389.913756	688.260276	-219.020853	386.265052	611.904294	-86.587311	394.811506	523.682634	-101.320582	360.941049	443.150525	-94.604995	415.019803	523.127148	-135.482365	340.033099	342.332767	-88.042020	335.866407	350.132028	-167.338646	270.833711	285.926147	-121.983685	530.218557	343.726693	-126.811504	454.914158	306.905426	-61.538646	227.306106	928.880534	-413.703483	301.531920	887.988524	-408.951968	326.195571	911.224676	-391.544414	348.224540	810.000332	-410.410647	382.448840	715.413827	-400.373410	395.850164	697.410462	-301.184002	112.082876	470.150429	-396.481796	133.735634	461.572184	-326.544335	41.254152	482.774639	-358.434744	133.136724	339.088294	-426.500758	311.006605	645.657715	-419.774364	264.593777	573.266108	-407.499042	185.613264	532.836940	-404.841760	284.440692	557.586321	-378.241918	212.293073	287.058272	-360.424488	-64.069587	854.002939	-236.957323	20.905734	85.272266	-441.391496	21.441215	83.995479	-43.238185	
504	2.5200	508.075596	1253.453633	-29.443257	547.142773	1247.127683	-338.319394	501.218207	1293.808530	-184.558499	479.236052	1155.518165	-189.885681	451.062430	998.963945	17.988224	670.100071	888.619653	-37.798014	488.865365	1021.050798	-487.766505	688.726424	873.463991	-437.949280	13.436129	1149.565701	-224.095680	151.264371	1144.408553	-368.885449	149.536741	1139.821475	-64.690971	190.981700	1084.758708	-343.113972	194.417833	1090.160470	-86.937927	42.304456	1179.498360	-161.203776	44.295494	1190.247032	-270.528263	126.076861	993.979411	-39.287134	127.965667	1023.941518	-411.761125	234.650154	903.877768	-56.184493	309.982658	862.905097	-70.956286	351.403831	785.702227	-86.660029	332.022893	885.373621	-89.889623	410.146749	707.831048	-126.663725	386.456013	685.096572	-219.518005	383.732835	608.644029	-87.013417	392.953871	520.556290	-101.663653	359.814171	439.793481	-94.863740	413.179531	520.148738	-135.824169	339.488549	338.715591	-88.193965	335.107251	346.483066	-167.350305	270.513390	282.519829	-122.051354	529.757190	338.229072	-127.388030	454.562773	302.469513	-61.643518	228.342457	930.523486	-413.537017	302.825337	890.175202	-408.714829	327.315335	913.497453	-391.058895	349.995364	812.650121	-410.172243	384.993768	718.332322	-400.500825	400.682861	701.267026	-299.626291	112.638145	474.573470	-396.473062	134.300507	465.997167	-326.539284	41.684981	487.236917	-358.555044	133.755842	343.585533	-426.527374	312.955915	648.746857	-419.577685	266.008264	576.658236	-407.314847	186.736741	536.873715	-404.770970	285.753311	560.853432	-378.105146	212.839066	291.650541	-360.403386	-64.117829	854.030277	-237.015653	20.884535	85.191959	-441.428774	21.439597	83.979135	-43.251296	
